<svg id="Layer_1" xmlns="http://www.w3.org/2000/svg" viewBox="0 0 120 120"><style>.st0{fill:none}.st1{fill:#fff}.st2{fill:gold}</style><path class="st0" d="M0 0h120v120H0z"/><path class="st1" d="M80 80H40V40h40v40zM61.4 57.8c-3.2-1.4-5.9-2.5-5.9-5.1 0-2.3 2.3-4.1 5.3-4.1 3.7 0 6.4 2.5 6.4 2.5l.3.3 2.2-4-.2-.2c-.1-.2-3-3.1-8.7-3.1s-10 3.7-10 8.6c0 5.3 4.5 7.2 8.4 8.9 3.3 1.4 6.2 2.7 6.2 5.5 0 2.9-2.5 4.1-5 4.1-4.3 0-7.5-3.1-7.5-3.1l-.3-.1-2.6 3.6.2.2s3.7 4.1 10.2 4.1c5.8 0 9.8-3.6 9.8-8.7-.1-5.7-4.7-7.7-8.8-9.4zM11.9 44.9h11c5.5 0 9.5 3.7 9.5 9.5s-4 9.6-9.5 9.6h-6.8v11.2h-4.2V44.9zm10.4 15.4c3.6 0 5.8-2.3 5.8-5.9s-2.2-5.8-5.8-5.8h-6.2v11.7h6.2zM97.2 48.6H86.9v-3.7h24.9v3.6h-10.3V75h-4.2V48.6h-.1zM38.5 93h1.8c1.1 0 1.8.6 1.8 1.5 0 1-.8 1.5-1.9 1.5h-.9v1.4h-.8V93zm1.8 2.4c.6 0 1-.3 1-.8s-.4-.8-1-.8h-.9v1.6h.9zM43.9 95.3c0-1.3 1-2.4 2.4-2.4s2.4 1.1 2.4 2.4c0 1.3-1 2.4-2.4 2.4-1.4-.1-2.4-1.2-2.4-2.4zm3.9 0c0-.9-.7-1.6-1.5-1.6s-1.5.8-1.5 1.6c0 .9.7 1.6 1.5 1.6s1.5-.8 1.5-1.6zM50.8 93h.8v3.8H54v.8h-3.2V93zM56 93h.8v4.6H56V93zM60.2 93.7h-1.4v-.8h3.7v.8h-1.4v3.8h-.8c-.1 0-.1-3.8-.1-3.8zM64.4 93h.8v4.6h-.8V93zM67.7 93h3.4v.8h-2.6V95h2.3v.8h-2.3V97h2.6v.8h-3.5l.1-4.8zM74.4 93.7H73v-.8h3.7v.8h-1.4v3.8h-.8c-.1 0-.1-3.8-.1-3.8zM78.2 96.9l.5-.6c.4.3.8.6 1.4.6.5 0 .8-.3.8-.6s-.2-.5-1-.7c-1-.3-1.5-.5-1.5-1.4 0-.8.7-1.4 1.5-1.4.7 0 1.2.2 1.7.6l-.4.6c-.4-.3-.8-.5-1.3-.5s-.8.3-.8.5c0 .3.2.5 1.1.8s1.4.6 1.4 1.4c0 .8-.7 1.4-1.6 1.4-.6 0-1.2-.2-1.8-.7zM12 105.7l.5-.6c.4.3.8.6 1.4.6.5 0 .8-.3.8-.6s-.2-.5-1-.7c-1-.3-1.5-.5-1.5-1.4 0-.8.7-1.4 1.5-1.4.7 0 1.2.2 1.7.6l-.4.6c-.4-.3-.8-.5-1.3-.5s-.8.3-.8.5c0 .3.2.5 1.1.8.9.3 1.4.6 1.4 1.4 0 .8-.7 1.4-1.6 1.4-.6.1-1.3-.2-1.8-.7zM17.7 101.8h.8v4.6h-.8v-4.6zM20.9 101.8h.8v2.3l2.2-2.3h1l-1.9 1.9 2 2.6h-1l-1.5-2-.7.8v1.4H21l-.1-4.7zM26.8 101.8h.8v2.3l2.2-2.3h1l-1.9 1.9 2 2.6h-1l-1.5-2-.7.8v1.4h-.8l-.1-4.7zM32.8 101.8h3.4v.8h-2.6v1.2h2.3v.8h-2.3v1.3h2.6v.8h-3.5l.1-4.9zM38.4 101.8h2c.6 0 1 .2 1.4.4.3.3.3.6.3 1 0 .8-.4 1.2-1.1 1.4l1.3 1.7h-.9l-1.1-1.6h-1v1.6h-.8c-.1 0-.1-4.5-.1-4.5zm1.9 2.3c.6 0 .9-.3.9-.8s-.3-.8-.9-.8h-1.2v1.5h1.2v.1zM44.2 101.8h.8v1.9h2.2v-1.9h.8v4.6h-.8v-1.9H45v1.9h-.8v-4.6zM50.4 101.8h3.4v.8h-2.6v1.2h2.3v.8h-2.3v1.3h2.6v.8h-3.5l.1-4.9zM57.1 102.6h-1.4v-.8h3.7v.8H58v3.8h-.8c-.1 0-.1-3.8-.1-3.8zM61.1 105.7l.5-.6c.4.3.8.6 1.4.6.5 0 .8-.3.8-.6s-.2-.5-1-.7c-1-.3-1.5-.5-1.5-1.4 0-.8.7-1.4 1.5-1.4.7 0 1.2.2 1.7.6l-.4.6c-.4-.3-.8-.5-1.3-.5s-.8.3-.8.5c0 .3.2.5 1.1.8.9.3 1.4.6 1.4 1.4 0 .8-.7 1.4-1.6 1.4-.7.1-1.3-.2-1.8-.7zM67.7 102.6h-1.4v-.8H70v.8h-1.4v3.8h-.8l-.1-3.8zM71.1 105.7l.5-.5c.3.3.5.5.9.5s.8-.3.8-.9v-3h.8v3c0 .5-.2.9-.4 1.2-.3.3-.7.4-1.1.4-.8.1-1.2-.3-1.5-.7zM76.4 101.8h3.4v.8h-2.6v1.2h2.3v.8h-2.3v1.3h2.6v.8h-3.5l.1-4.9zM82 101.8h.8l2.5 3.1v-3.1h.7v4.6h-.7l-2.5-3.3v3.3H82v-4.6zM88.3 101.8h3.4v.8h-2.6v1.2h2.3v.8h-2.3v1.3h2.6v.8h-3.5l.1-4.9zM93.7 105.7l.5-.6c.4.3.8.6 1.4.6.5 0 .8-.3.8-.6s-.2-.5-1-.7c-1-.3-1.5-.5-1.5-1.4 0-.8.7-1.4 1.5-1.4.7 0 1.2.2 1.7.6l-.4.6c-.4-.3-.8-.5-1.3-.5s-.8.3-.8.5c0 .3.2.5 1.1.8s1.4.6 1.4 1.4c0 .8-.7 1.4-1.6 1.4-.7.1-1.3-.2-1.8-.7zM100.4 102.6H99v-.8h3.7v.8h-1.4v3.8h-.8c-.1 0-.1-3.8-.1-3.8zM104.6 101.8h3.4v.8h-2.6v1.2h2.3v.8h-2.3v1.3h2.6v.8h-3.5l.1-4.9z"/><path class="st2" d="M56.2 11.8c.5.3 1.3.1 1.6-.1.3-.2.5.1.8-.1-.3-.3-.8-.3-1.5-.2s-1.1-.1-1.4-.2c.1.4 0 .3.5.6zm14.2 5.6c1.1-.3 2.3-1.9 2.3-2 .1-.2-.1-.3-.2-.2-.2.2-.8.7-1.4.8-.5.2-1 .2-1.5.3.1-.3.3-.8.9-1.4.7-.8 2-2 1.9-3.6-.1-.9-.5-1.8-1.4-2.1-.7-.3-1.9-.3-2.6.2-.7.4-.9 1-1 1.8-1.1.3-1.6 1.6-1.8 2.3-.1.4 0 .5.1.5.2 0 0-.3.3-.6s.4-.3.8-.6c.1.6-.6 1.6-.8 1.9-.2.3-.9 1.3-.9 1.8.1.5.1.3.1.3s.3-.5.8-1c.6-.5 1.4-.8 1.9-1.1.2-.1.3-.3.2-.6 0-.2-.3-.8-.1-1.1.4.4.7 1.1.7 1.4.5-.8.6-1.4.5-1.8-.1-.5-.3-.9-.9-1.2-.2-.1-.2-.2-.2-.2 0-.5.4-1.1.7-1.2.6-.3 1.4-.3 1.9.1s.8.7.8 1.4c0 1.6-1.3 2.5-2.5 3.4-.9.7-2 1.4-2.8 2.7-1.5 2.3.8 3.5 2.1 4.6 1.4 1.2 1.8 1.5 1.7 2.4-.1.6-.8 1-1.4.9-.7-.1-1.9-.2-5.9-2.7-.2-1.3-.4-2.9-.4-4.3.7.1.8.3 1 .3-.2-.8 0-1.7.1-2.2.1-.3.5-1.3.8-2.1.2-.4.3-.9.4-1.3.2-.8.3-1.6 0-2.4-.1-.3-.3-.5-.4-.7h.1c.1-.2.3-.3.5-.7l.9-.9v-.1c-.1-.1-.2-.1-.3-.1-.2 0-.3.2-.5.3l-.1-.1c-.3-.2-.7-.2-.8.1-.1.1-.1.1-.1.2s0 .3.1.3c-.3.1-.5.1-.7.1-.3-.1-.4-.2-.5-.3.3 0 .6-.1.6-.3 0-.4-.2-.6-.5-.6 0-.3-.1-.5-.4-.5-.3-.1-.5.1-.6.3-.3 0-.6.1-.6.3-.1.3.1.4.4.5-.2.1-.3.2-.7.1-.2 0-.4-.2-.6-.3.5-.1.6-.2.6-.3V8c-.1-.3-.4-.4-.8-.3h-.1c-.1-.2-.1-.4-.3-.5-.1-.1-.2-.1-.3 0h-.1v.1c.2.3.3.8.4 1.2.2.3.2.6.2.7 0 0 0 .1.1.1-.6.2-1.6.7-2 1.1.3.7.5 1 .7 1.2.8-.4 1.7-.3 2.2-.1-.2.4-.2.3-.3.3-.1.1-1.3-.2-1.9.1-.2.1-.3.4-.3.7-.1.3.3.1.3 0 .2 0 1.1-.3 1.8.1 0 .3-.2.3-.6.5-.3.1-2.3.2-3.4 1.7-.9 1.3-1.3 3-1.7 3.6s-.3.7 0 .4c.3-.2.9-.3 1.1-.3.2 0 .1 0 0 .2-.7.8-.9 2.3-1.4 3.1-.2.3-.3.7-.5.8 0 0-.3-.2-.6-.3 0-.6.1-1.1-.2-1.7-.2-.4-.4-.6-.6-.7-.1-.1-.5-.3-.5-.1 0 .2.3.2.3.6 0 .2-.2.4-.1.8 0 .3.3.6.3.6s-.3-.1-.5-.2c-.3-1.4-.4-2.6-.4-4v-.6c0-.8 0-1.5.1-2.2.2-.2.3-.3.7-.1.1.1.1.2.1.3 0 .2.3.1.5.3.1.1 1.7 1.2 1.9 1.4.3-.6.3-1.2.6-1.5-.8-.3-1.4-.6-1.6-.7-.3-.2-.1-.4-.6-.3-.3.1-.4-.1-.3-.4.1-.3.8-1 .6-1.8-.2-.6-.3-.6-.5-.5v.3c0 .3-.2.4-.3.5-.1 0-.4.4-.4.7 0 .2-.2.5-.3.3 0-.1-.1-.1-.2-.2.1-.7.2-1.4.3-2h.4l.3-1.5s-.3 0-.3-.1l.1-.5L52 9l-.1.5c-2.5-.5-3.2-1.1-3.7-2-.2.3-.7 1.2-.6 2.7 0 1.9.8 2.8.8 2.8s.9-1.6 3.4-1.8c-.1.3-.2.8-.3 1.6-.3-.2-.8-.2-1.1-.2-.7.2-.6.5-.6.5h.4c.3 0 .3.4.5.5.1.1.3.2.6.3 0 .2 0 .3-.1.5-.3.2-1.2.4-1.4 1.3-.1.2 0 .3.1.2.1-.1.3-.3.8-.3.1 0 .3 0 .4-.1 0 1.2-.1 2.5 0 3.5.1.8.2 1.7.3 2.5h-.3c-.7.2-.8.5-.7.6s.2 0 .3 0 .4.1.5.2.3.2.4.3c.1.3.1.5.2.8-.3.3-.6.7-.7 1-.1.6.1.4.3.4 0-.2.2-.3.3-.3s.2-.1.3-.1c.3.9.6 1.9 1 2.8h1.2s-.8-1.9-1.3-3.5c.3-.3.5-.4.8-.4s.4.1.5.3c0 .2-.1.7 0 .7.2 0 1.4-1.5 1.9-2.2.5-.6 2.5-3.6 3.4-4 0 0-1.5 2.4-2 3 .1.3 1 1.4 1.2 2.1-.7.2-2.2 1.3-2.7 1.8-.5.4-.9 1.3-.9 1.9-.1.6.1 2.1.3 2.5.2.3.1.4-.1.5s-.8.8-1.1 1.2c-.3.4-.8.8-.9 1-.4.5-1.2.5-1.3.1 0 0-.3-1.1-.5-1.4-.3-.3-.8-.7-1.3-.5-.3.1-.1.2 0 .3.1 0 .4.3.3.4s-.1.5 0 .7.5.7.1.5-.8-.3-1.1-.3c-.4 0-1.3.3-1.2.8 0 .3.2.1.3.1s.5-.1.6 0 .4.4.8.4.6-.2.8 0c.1.1-.2.3-.3.4s-.3.4-.1.6c.2.3 0 .5-.3.7s.1.3.4.1c.8-.3 1.3-.8 1.4-1.4.6 0 .6.1.7.3.1.3.2.8.5.3.5-.5 2.4-1.9 3.9-2.6 1.1-.4 1.4-.7 1.7-1 0 0-.8-.6-.3-1.3.6-.7.6-.7.8-.8 0 0-.8-.6-.8-1.4s.8-3 .8-3.6c.3.7-.3 2.9-.3 3.2-.1.7.2 1.1.6 1.4.8.7 2.1 1.1 3 1.1 1.8-.1 2.4-.2 2.5-.2.3 0 .4.1.5.3.2.3.7 1.1 1.7 1.8.8.5 1 1.1 1.2 1.3.1.1-.2.1-.3.2s-.4.2-.6 0c-.3-.2-.8-.7-1.5-.7s-1-.1-.9.1c.1.3.2 0 .4 0 .3.1.8.6 1 .7.3.1.3.1.2.2-.3.2-1.6.3-1.8 1-.1.4.2.3.3.3.1 0 .3-.2.4-.2.2 0 .3.1.5.1s.7-.3.8-.4c.2-.2.3-.2.3-.1 0 0-.1.2-.3.3-.1.2-.5.7-.2 1.3.2.3.3.3.3.1s.1-.8.6-.8c.4-.1.7-.1.7-.5.1-.4.5-1 1.7-.9.8.1.7 0 .6-.2 0 0-1.4-2.1-1.8-2.6-.4-.7-.8-1.9-1-2.6-.1-.3-.2-.5-.3-.6-.3-.1-.5 0-.8-.2-.4-.2-.6-.2-.8-.3-.8 0-1.2-.3-2.1-1.1l-.9-.9c-.1-.1-.5-.5-.6-.7 1.9 1.2 4.7 2.5 6.2 2.6 1 .1 1.9-.4 2.4-1.2.8-1.4-.2-2.7-.8-3.4-.3-.3-.3-.8.3-1.2.8-.5 1.5-1.6 1.5-2 0-.2-.1-.3-.3-.1-.2.2-.5.6-1 .8-1.4.5-1.4.9-1.5.9s-.2 0-.2-.1.1-.6 1-1c1.4-.7 2.1-1.9 2.2-1.9 0-.1 0-.3-.2-.2-.2.1-.8.6-1.4.8-1.3.3-1.7.8-1.7.8-.1.1-.3 0-.2-.1.3-.3.7-.8 1.8-1.2zm-12.3-2.3c-.6 1.2-.9 1.7-1.6 1.7.5-.6.7-1.4 1.4-2.2.4-.4 1.1-.6 1.5-.4 0-.1-1 .2-1.3.9zm3.2-5s-.2.3-.3.3c-.2 0-1.3-.2-1.6-.1.4-.3 1.3-.8 2.1-.7.8.3 1.8.3 2.2.4.2 0-.1.2-.1.2s-.6.2-1.5 0c-.6-.2-.8-.1-.8-.1z"/></svg>